<svg width="34" height="28" viewBox="0 0 34 28" fill="none" xmlns="http://www.w3.org/2000/svg">
<path d="M0 10.4941C0.176149 10.2061 0.384865 9.93932 0.622009 9.69905C0.839561 9.54062 1.1019 9.45553 1.37103 9.45607C3.62003 9.43807 5.87104 9.44409 8.11804 9.44509C8.17346 9.44987 8.22853 9.45787 8.28302 9.46907C8.04902 10.0091 7.813 10.5271 7.599 11.0541C7.53797 11.1905 7.50933 11.3391 7.51526 11.4884C7.52119 11.6376 7.56153 11.7835 7.63318 11.9146C7.70483 12.0457 7.80584 12.1584 7.92828 12.244C8.05073 12.3296 8.19126 12.3858 8.33899 12.408C8.56041 12.4423 8.78688 12.399 8.98004 12.2855C9.1732 12.172 9.32117 11.9952 9.39899 11.7851C9.70799 11.0951 10.015 10.4051 10.299 9.70607C10.3222 9.62069 10.3754 9.54658 10.4489 9.49733C10.5224 9.44809 10.6113 9.42702 10.699 9.43807C14.6324 9.44473 18.568 9.44473 22.506 9.43807C22.5945 9.42559 22.6844 9.44571 22.7591 9.49465C22.8338 9.54359 22.8881 9.61801 22.912 9.70406C23.195 10.3931 23.5 11.0731 23.804 11.7531C23.8467 11.8819 23.916 12.0003 24.0073 12.1008C24.0985 12.2012 24.2098 12.2815 24.334 12.3363C24.4581 12.3911 24.5924 12.4194 24.7281 12.4191C24.8639 12.4189 24.998 12.3903 25.122 12.335C25.2454 12.2789 25.3558 12.198 25.4465 12.0972C25.5371 11.9965 25.606 11.8781 25.6488 11.7495C25.6916 11.6209 25.7074 11.4849 25.6953 11.3499C25.6831 11.215 25.6431 11.0839 25.578 10.965C25.368 10.471 25.153 9.98007 24.921 9.44307H25.289C27.4083 9.44307 29.5277 9.44307 31.647 9.44307C31.8857 9.41166 32.1284 9.4426 32.3516 9.53286C32.5747 9.62311 32.7707 9.76959 32.9205 9.95809C33.0702 10.1466 33.1686 10.3707 33.206 10.6085C33.2434 10.8463 33.2186 11.0897 33.134 11.3151C31.948 16.4817 30.7617 21.6484 29.575 26.8151C29.5148 27.1664 29.3255 27.4825 29.0444 27.7015C28.7632 27.9205 28.4103 28.0266 28.055 27.999C25.795 27.999 23.5353 27.999 21.276 27.999H5.42102C4.22802 27.999 3.83602 27.674 3.56702 26.499C2.40302 21.4164 1.23635 16.3347 0.0670166 11.254C0.0488774 11.1927 0.0268534 11.1326 0.0010376 11.0741L0 10.4941ZM11.744 19.2531C11.744 18.0871 11.744 16.9211 11.744 15.7531C11.7561 15.618 11.7396 15.482 11.6958 15.3537C11.652 15.2254 11.5817 15.1076 11.4895 15.0082C11.3973 14.9088 11.2853 14.8298 11.1606 14.7764C11.036 14.723 10.9016 14.6963 10.766 14.6981C10.6305 14.6981 10.4965 14.7265 10.3726 14.7815C10.2487 14.8364 10.1376 14.9166 10.0465 15.017C9.95545 15.1174 9.88644 15.2357 9.84381 15.3643C9.80118 15.493 9.7859 15.6292 9.79901 15.7641C9.79901 18.0754 9.79901 20.3861 9.79901 22.6961C9.78797 22.8309 9.80438 22.9666 9.84729 23.0949C9.8902 23.2232 9.95871 23.3414 10.0486 23.4425C10.1386 23.5435 10.2481 23.6253 10.3705 23.6828C10.493 23.7403 10.6258 23.7724 10.761 23.7771C10.899 23.7753 11.0352 23.745 11.1609 23.6881C11.2866 23.6311 11.3992 23.5488 11.4915 23.4462C11.5839 23.3436 11.6539 23.223 11.6974 23.0921C11.7408 22.9611 11.7567 22.8225 11.744 22.6851C11.7487 21.5417 11.7487 20.3977 11.744 19.2531ZM17.584 19.2321C17.584 18.0661 17.584 16.9001 17.584 15.7321C17.6011 15.4813 17.52 15.2337 17.3578 15.0416C17.1956 14.8496 16.9651 14.7282 16.715 14.7031C16.5721 14.6871 16.4275 14.7031 16.2915 14.7498C16.1555 14.7966 16.0317 14.873 15.9288 14.9735C15.826 15.0739 15.7467 15.1959 15.6968 15.3308C15.6468 15.4656 15.6274 15.6098 15.64 15.7531C15.64 18.0531 15.64 20.3531 15.64 22.6531C15.6224 22.7931 15.6346 22.9352 15.6758 23.0701C15.717 23.2051 15.7863 23.3299 15.8792 23.4361C15.972 23.5424 16.0863 23.6278 16.2145 23.6867C16.3427 23.7457 16.4819 23.7768 16.623 23.7781C16.7612 23.7739 16.8971 23.741 17.022 23.6815C17.1469 23.6221 17.2582 23.5374 17.3487 23.4328C17.4392 23.3282 17.507 23.206 17.5479 23.0739C17.5887 22.9417 17.6017 22.8025 17.586 22.6651C17.5853 21.5211 17.5843 20.3767 17.583 19.2321H17.584ZM23.423 19.249C23.423 18.105 23.423 16.9607 23.423 15.8161C23.4423 15.6763 23.4312 15.5341 23.3906 15.399C23.3499 15.2639 23.2806 15.1392 23.1874 15.0333C23.0943 14.9274 22.9793 14.8429 22.8505 14.7854C22.7217 14.7279 22.5821 14.6988 22.441 14.7001C22.303 14.7014 22.1669 14.7319 22.0414 14.7896C21.916 14.8472 21.8042 14.9307 21.7133 15.0345C21.6223 15.1383 21.5544 15.2602 21.5139 15.3922C21.4733 15.5241 21.4611 15.6631 21.478 15.8001C21.478 18.0887 21.478 20.3777 21.478 22.6671C21.4629 22.8044 21.4764 22.9435 21.5177 23.0753C21.559 23.2072 21.6272 23.3291 21.718 23.4333C21.8087 23.5375 21.9201 23.6217 22.045 23.6807C22.17 23.7397 22.3059 23.7722 22.444 23.7761C22.5824 23.7739 22.7188 23.7429 22.8447 23.6853C22.9705 23.6276 23.083 23.5444 23.175 23.441C23.2671 23.3376 23.3366 23.2162 23.3793 23.0846C23.422 22.9529 23.4369 22.8138 23.423 22.676C23.4244 21.536 23.4244 20.3937 23.423 19.249V19.249Z" fill="#206F30"/>
<path d="M8.32098 9.388C8.80498 8.282 9.26201 7.23605 9.72101 6.18805C10.521 4.35005 11.324 2.51201 12.13 0.674007C12.2007 0.46176 12.3417 0.280021 12.5297 0.158748C12.7177 0.0374762 12.9415 -0.0160652 13.164 0.00701504C13.3207 0.0241757 13.4708 0.0791267 13.6016 0.16711C13.7324 0.255094 13.8399 0.373475 13.9149 0.512142C13.9898 0.650809 14.0299 0.805583 14.0319 0.963192C14.0338 1.1208 13.9975 1.27658 13.926 1.41705C13.394 2.65505 12.85 3.88902 12.31 5.12402C11.727 6.45802 11.141 7.79102 10.567 9.12402C10.5431 9.21006 10.4885 9.28435 10.4135 9.33282C10.3384 9.38129 10.2482 9.40056 10.16 9.38702C9.56497 9.37602 8.97198 9.388 8.32098 9.388Z" fill="#206F30"/>
<path d="M24.872 9.38705C24.184 9.38705 23.529 9.39605 22.872 9.37405C22.794 9.37405 22.697 9.20905 22.651 9.10305C21.843 7.26505 21.0387 5.4254 20.238 3.58407C19.923 2.86207 19.602 2.14208 19.291 1.41708C19.2318 1.29803 19.1974 1.16818 19.1899 1.03542C19.1824 0.902673 19.202 0.769751 19.2474 0.644799C19.2929 0.519847 19.3633 0.40547 19.4543 0.308557C19.5453 0.211643 19.6551 0.134196 19.777 0.0810177C19.8967 0.0289761 20.0257 0.00167642 20.1562 0.000756437C20.2867 -0.000163547 20.416 0.0253585 20.5364 0.0757076C20.6568 0.126057 20.7658 0.200239 20.8568 0.293786C20.9478 0.387333 21.019 0.498271 21.066 0.620019C22.314 3.46735 23.5577 6.31703 24.797 9.16903C24.824 9.22603 24.839 9.28705 24.872 9.38705Z" fill="#206F30"/>
</svg>
