<svg width="34" height="19" viewBox="0 0 34 19" fill="none" xmlns="http://www.w3.org/2000/svg">
<path d="M0 1.4941C0.176149 1.20611 0.384865 0.939315 0.622009 0.699054C0.839561 0.54062 1.1019 0.455534 1.37103 0.456073C3.62003 0.438073 5.87104 0.444086 8.11804 0.445086C8.17346 0.44987 8.22853 0.457871 8.28302 0.469073C8.04902 1.00907 7.813 1.5271 7.599 2.0541C7.53797 2.19046 7.50933 2.33908 7.51526 2.48836C7.52119 2.63764 7.56153 2.78353 7.63318 2.91463C7.70483 3.04573 7.80584 3.15843 7.92828 3.24404C8.05073 3.32964 8.19126 3.38576 8.33899 3.40804C8.56041 3.44227 8.78688 3.399 8.98004 3.28548C9.1732 3.17195 9.32117 2.99515 9.39899 2.78505C9.70799 2.09505 10.015 1.40507 10.299 0.706073C10.3222 0.620691 10.3754 0.546577 10.4489 0.497333C10.5224 0.448088 10.6113 0.427023 10.699 0.438067C14.6324 0.444734 18.568 0.444734 22.506 0.438067C22.5945 0.425595 22.6844 0.445707 22.7591 0.494647C22.8338 0.543587 22.8881 0.618007 22.912 0.704059C23.195 1.39306 23.5 2.07307 23.804 2.75307C23.8467 2.8819 23.916 3.00034 24.0073 3.10079C24.0985 3.20124 24.2098 3.2815 24.334 3.33632C24.4581 3.39115 24.5924 3.41936 24.7281 3.41915C24.8639 3.41894 24.998 3.39025 25.122 3.33504C25.2454 3.27893 25.3558 3.198 25.4465 3.09725C25.5371 2.99649 25.606 2.87812 25.6488 2.74953C25.6916 2.62094 25.7074 2.48491 25.6953 2.34993C25.6831 2.21495 25.6431 2.0839 25.578 1.96504C25.368 1.47104 25.153 0.980072 24.921 0.443072H25.289C27.4083 0.443072 29.5277 0.443072 31.647 0.443072C31.8857 0.411655 32.1284 0.442599 32.3516 0.532855C32.5747 0.623111 32.7707 0.76959 32.9205 0.958087C33.0702 1.14658 33.1686 1.37068 33.206 1.60848C33.2434 1.84628 33.2186 2.08971 33.134 2.31508C31.948 7.48175 30.7617 12.6484 29.575 17.8151C29.5148 18.1664 29.3255 18.4825 29.0444 18.7015C28.7632 18.9205 28.4103 19.0266 28.055 18.999C25.795 18.999 23.5353 18.999 21.276 18.999H5.42102C4.22802 18.999 3.83602 18.674 3.56702 17.499C2.40302 12.4164 1.23635 7.33471 0.0670166 2.25405C0.0488774 2.1927 0.0268534 2.13259 0.0010376 2.07405L0 1.4941ZM11.744 10.2531C11.744 9.08707 11.744 7.92107 11.744 6.75307C11.7561 6.61802 11.7396 6.48196 11.6958 6.35366C11.652 6.22535 11.5817 6.10763 11.4895 6.0082C11.3973 5.90876 11.2853 5.82981 11.1606 5.77639C11.036 5.72296 10.9016 5.69628 10.766 5.69808C10.6305 5.69814 10.4965 5.72653 10.3726 5.78145C10.2487 5.83638 10.1376 5.9166 10.0465 6.01699C9.95545 6.11737 9.88644 6.23568 9.84381 6.36434C9.80118 6.49299 9.7859 6.62916 9.79901 6.76406C9.79901 9.07539 9.79901 11.3861 9.79901 13.6961C9.78797 13.8309 9.80438 13.9666 9.84729 14.0949C9.8902 14.2232 9.95871 14.3414 10.0486 14.4425C10.1386 14.5435 10.2481 14.6253 10.3705 14.6828C10.493 14.7403 10.6258 14.7724 10.761 14.7771C10.899 14.7753 11.0352 14.745 11.1609 14.6881C11.2866 14.6311 11.3992 14.5488 11.4915 14.4462C11.5839 14.3436 11.6539 14.223 11.6974 14.0921C11.7408 13.9611 11.7567 13.8225 11.744 13.6851C11.7487 12.5417 11.7487 11.3977 11.744 10.2531ZM17.584 10.2321C17.584 9.06607 17.584 7.90007 17.584 6.73207C17.6011 6.4813 17.52 6.23368 17.3578 6.04164C17.1956 5.8496 16.9651 5.72821 16.715 5.70308C16.5721 5.68713 16.4275 5.70308 16.2915 5.74984C16.1555 5.79659 16.0317 5.873 15.9288 5.97347C15.826 6.07393 15.7467 6.19594 15.6968 6.33077C15.6468 6.46559 15.6274 6.60984 15.64 6.75307C15.64 9.05307 15.64 11.3531 15.64 13.6531C15.6224 13.7931 15.6346 13.9352 15.6758 14.0701C15.717 14.2051 15.7863 14.3299 15.8792 14.4361C15.972 14.5424 16.0863 14.6278 16.2145 14.6867C16.3427 14.7457 16.4819 14.7768 16.623 14.7781C16.7612 14.7739 16.8971 14.741 17.022 14.6815C17.1469 14.6221 17.2582 14.5374 17.3487 14.4328C17.4392 14.3282 17.507 14.206 17.5479 14.0739C17.5887 13.9417 17.6017 13.8025 17.586 13.6651C17.5853 12.5211 17.5843 11.3767 17.583 10.2321H17.584ZM23.423 10.249C23.423 9.10504 23.423 7.96072 23.423 6.81606C23.4423 6.67632 23.4312 6.53408 23.3906 6.399C23.3499 6.26393 23.2806 6.13924 23.1874 6.03334C23.0943 5.92745 22.9793 5.84286 22.8505 5.78536C22.7217 5.72785 22.5821 5.69877 22.441 5.70009C22.303 5.70145 22.1669 5.73194 22.0414 5.78957C21.916 5.8472 21.8042 5.93066 21.7133 6.0345C21.6223 6.13835 21.5544 6.26024 21.5139 6.39217C21.4733 6.5241 21.4611 6.66309 21.478 6.80007C21.478 9.08873 21.478 11.3777 21.478 13.6671C21.4629 13.8044 21.4764 13.9435 21.5177 14.0753C21.559 14.2072 21.6272 14.3291 21.718 14.4333C21.8087 14.5375 21.9201 14.6217 22.045 14.6807C22.17 14.7397 22.3059 14.7722 22.444 14.7761C22.5824 14.7739 22.7188 14.7429 22.8447 14.6853C22.9705 14.6276 23.083 14.5444 23.175 14.441C23.2671 14.3376 23.3366 14.2162 23.3793 14.0846C23.422 13.9529 23.4369 13.8138 23.423 13.676C23.4244 12.536 23.4244 11.3937 23.423 10.249V10.249Z" fill="#206F30"/>
</svg>
